<svg xmlns="http://www.w3.org/2000/svg" width="841.387" height="633.525"><path fill="#fdadb0" d="m333.05 444.238 22.005 1.992 27.33 13.88 4.507-16.097 3.937-20.38-8.2-9.657-14.166 9.658-29.619-3.22-5.795 23.824z"/><path fill="#2f2e41" d="m152.404 413.343-16.915 49.452 121.693-34.77 78.554 21.892 11.59-25.111-86.924-36.701-67.34 27.36-40.658-2.122zM384.855 422.762l2.575 1.931-15.99 30.266s10.801 6.302 14.02 6.302 14.204-62.323 12.916-71.527c-1.288-9.205-9.658-6.249-9.658-6.249l-18.069 38.171 14.206 1.106Z"/><path fill="#fdadb0" d="m228.182 256.257-15.112 28.14 11.03 6.309 15.882-27.934a18.978 18.978 0 0 0 5.971-6.683c3.667-6.641 3.214-13.913-1.01-16.246s-10.621 1.158-14.286 7.797a18.98 18.98 0 0 0-2.475 8.617Z"/><path fill="#e6e6e6" d="m116.773 327.967 76.686 14.623 47.307-74.286-18.846-11.594-36.385 48.844-69.153-8.666.39 31.08z"/><path fill="#6c63ff" d="M183.444 255.97h489.833v205.51H183.444z"/><path fill="#fdadb0" d="m102.408 308.683 8.37-29.619 20.605.644 7.083 23.824-36.058 5.15z"/><path d="m102.408 308.683 8.37-29.619 20.605.644 7.083 23.824-36.058 5.15z" opacity=".1"/><circle cx="123.699" cy="259.476" r="27.363" fill="#fdadb0"/><path fill="#2f2e41" d="m121.515 222.689-.414.71c5.352-1.064 20.225-1.752 23.891 2.29s5.02 10.05 3.44 15.274c2.598 1.518 4.433 4.276 4.83 7.259s-.655 6.123-2.767 8.267c.816-4.23-1.46-8.68-4.976-11.17-3.515-2.49-8.045-3.221-12.334-2.817-7.785.734-15.142 5.158-19.441 11.69-3.564 5.417-5.451 12.49-11.125 15.626-1.173.648 1.907 3.141 1.118 4.224-1.25 1.717-.216-1.032 1.021.695s-.194 3.898.805 5.773c.999 1.875-.652 7.035-2.469 8.136-8.134-8.063-20.608-18.597-21.022-30.043-.414-11.446 2.21-21.064 9.74-29.694-5.283-3.513-6.528-11.37-3.604-17.001 2.924-5.63 9.128-9.036 15.417-9.879 4.896-.657 10.336.25 13.758 3.813 2.268 2.36 3.38 5.57 4.427 8.671l1.476 4.373c.293.868.589 1.804.335 2.685-.254.88-1.314 1.58-2.106 1.118Z"/><path fill="#2f2e41" d="m120.684 242.66-.496.344c1.635 5.07-1.704 10.336-5.26 14.305-3.555 3.968-7.738 8.052-8.209 13.36-.535 6.024 3.983 11.776 2.957 17.736-.88 5.12-6.398 8.947-11.502 7.978 5.165-4.41 7.28-12.066 5.11-18.502-1.328-3.937-4.105-7.5-4.169-11.656-.062-4.109 2.547-7.719 5.039-10.987 4.322-5.671 9.44-11.812 16.53-12.577Z"/><path fill="#3f3d56" d="M827.27 458.726H1.88c-1.042 0-1.88.53-1.88 1.19s.838 1.19 1.88 1.19h825.39c1.044 0 1.881-.53 1.881-1.19s-.837-1.19-1.88-1.19Z"/><path fill="#a0616a" d="m627.402 91.271 3.874-24.208-26.145-10.652-3.874 36.797 26.145-1.937zM697.81 246.556c8.844 5.784 18.997 5.91 22.677.28s-.507-14.878-9.354-20.662a26.444 26.444 0 0 0-11.713-4.334l-37.78-24.034-10.9 17.97 38.401 21.784a26.446 26.446 0 0 0 8.67 8.996Z"/><path fill="#e6e6e6" d="M613.299 95.39c-13.849 1.137-23.485 14.27-20.415 27.821l15.763 69.574 72.548 42.413 8.928-22.695-49.48-36.831-2.65-58.542c-.585-12.935-11.79-22.799-24.694-21.74Z"/><path fill="#a0616a" d="m750.122 342.419 15.363 22.98 2.86 7.2 8.423 5.326 31.954-14.833-6.922-15.159-20.745 1.37-8.525-13.08-22.408 6.196z"/><path fill="#2f2e43" d="m803.25 358.958-.318 3.168-36.859 9.911s9.842 13.098 11.488 15.824 53.428-28.545 60.561-34.34.353-11.37.353-11.37l-41.55 4.216 6.326 12.591Z"/><path fill="#2f2e41" d="m580.161 214.138-4.092 9.672s-8.93 27.531 36.832 37.204 69.57 5.58 69.57 5.58l78.873 94.498 20.09-17.485-62.838-95.27a34.588 34.588 0 0 0-17.242-13.53l-94.658-33.8-26.535 13.13Z"/><path fill="#a0616a" d="m700.734 382.441 10.11 25.728 1.26 7.643 7.093 7 34.382-7.68-3.532-16.286-20.56-3.085-5.54-14.595-23.213 1.275z"/><path fill="#2f2e43" d="m749.114 409.927-.986 3.027-38.125 1.826s6.824 14.895 7.85 17.908 58.286-16.497 66.49-20.639 2.77-11.033 2.77-11.033l-41.495-4.739 3.496 13.65Z"/><path fill="#2f2e41" d="m558.37 213.932-6.06 8.578s-14.594 24.994 28.052 44.201c42.647 19.207 66.782 20.285 66.782 20.285l56.912 109.14 23.356-12.8-45.24-117.256-44.1-40.468-79.702-11.68Z"/><path fill="#fdadb0" d="m230.853 582.964 10.11 25.727 1.26 7.643 7.094 7 34.382-7.679-3.532-16.287-20.56-3.084-5.54-14.596-23.214 1.276z"/><path fill="#2f2e43" d="m279.234 610.45-.987 3.027-38.124 1.825s6.823 14.895 7.85 17.908 58.285-16.497 66.49-20.638c8.206-4.142 2.769-11.034 2.769-11.034l-41.494-4.738 3.496 13.65Z"/><path fill="#2f2e41" d="m92.812 419.442-6.06 8.578s-14.593 24.995 28.053 44.201c42.646 19.207 66.782 20.285 66.782 20.285l56.912 109.14 23.356-12.8-45.24-117.256-57.46-58.858-66.343 6.71Z"/><path fill="#e6e6e6" d="M633.556 84.405 599.7 73.244l-31.895 34.909A62.46 62.46 0 0 0 551.51 147.7l-3.523 85.148 84.453-15.253 1.116-133.19Z"/><path fill="#a0616a" d="M668.03 253.135c8.843 5.784 18.995 5.91 22.675.281s-.506-14.878-9.353-20.663a26.444 26.444 0 0 0-11.713-4.334l-37.78-24.033-10.9 17.969 38.401 21.784a26.446 26.446 0 0 0 8.67 8.996Z"/><path fill="#e6e6e6" d="M583.518 101.97c-13.849 1.137-23.485 14.269-20.415 27.82l15.763 69.575 72.547 42.412 8.93-22.694-49.482-36.832-2.649-58.542c-.585-12.934-11.79-22.798-24.694-21.74Z"/><circle cx="619.843" cy="47.383" r="29.902" fill="#a0616a"/><path fill="#2f2e43" d="M634.07 8.643c6.585 2.315 10.354 3.64 13.807 6.965 5.831 5.618 6.794 13.126 7.688 20.101.7 5.458 1.604 12.513-1.592 20.575-1.09 2.75-6.38 15.008-16.506 16.557-1.989.304-6.657.384-5.312-.61 12.454-9.194 17.77-14.745 17.334-28.915-.271-8.805-13.725-18.311-21.714-20.02-3.365-.72-7.845-.062-11.058 2.575-6.714 5.512-6.428 28.306-13.508 33.07-2.911 1.96-.971-11.833-3.023-9.597-4.048 4.414-1.451 11.173-.724 13.747 3.45 12.21 9.956 13.405 13.326 23.832 3.639 11.256-.94 21.855-2.027 24.368-1.889 4.372-5.13 11.875-12.538 15.474-9.402 4.57-16.812-1.38-21.183 3.72-2.444 2.852-1.122 5.872-5.535 14.74-1.441 2.896-2.161 4.344-2.799 4.292-3.018-.243-7.904-24.399-.001-46.895 3.316-9.44 6.565-18.69 15.274-25.923 4.604-3.824 8.466-5.2 9.565-9.666 1.57-6.38-4.95-9.102-6.257-19.168-.894-6.885-1.521-16.73.91-23.04 2.295-5.96 4.287-11.133 9.503-15.824 1.252-1.126 11.363-8.784 22.084-9 4.936-.1 8.563 6.63 14.285 8.642Z"/><g fill="#fff"><path d="m327.288 332.998.044.021-.032-.016-.012-.005ZM304.865 350.958a.535.535 0 0 0-.4.11c.14-.04.268-.071.362-.086l.038-.024Z"/><path d="m351.048 399.256-38.775-4.11a103.423 103.423 0 0 0 15.705-15.892c3.901-4.923 7.444-10.1 10.453-15.618 3.22-5.904 5.974-12.273 6.252-19.087.254-6.227-2.205-12.65-7.028-16.704-4.43-3.724-9.746-5.566-15.43-6.267-11.494-1.419-25.89 2.634-31.572 13.54-3.502 6.72-3.593 14.975 1.497 20.91 4.352 5.074 12.543 7.047 18.304 3.231 2.178-1.442 3.314-4.483 1.794-6.84-1.4-2.172-4.509-3.339-6.841-1.794-.177.117-.362.222-.542.333.033.005.065.005.097.018a.34.34 0 0 0-.135.006l-.086.052c-.42.28-.428.154-.277.035-.227.065-.473.146-.638.203-.163 0-.327.009-.49.005-.11-.003-.474-.063-.573-.071a16.369 16.369 0 0 1-.208-.05c-.21-.054-.795-.353-1.067-.376l-.06-.03c-.186-.099-.37-.203-.55-.313-.177-.108-.346-.23-.523-.338l-.006-.006c-.36-.355-.716-.707-1.065-1.072-.102-.212-.28-.421-.396-.621-.108-.187-.2-.38-.305-.569a6.02 6.02 0 0 0-.158-.27c-.117-.438-.197-.993-.24-1.199-.027-.127-.084-.331-.113-.512.013-.196.024-.415.022-.527-.013-.536.017-1.065.055-1.599l.002-.008c.076-.299.118-.608.191-.908.132-.544.294-1.08.48-1.608.024-.066.05-.158.073-.249.112-.27.265-.542.392-.786.26-.497.544-.982.85-1.452.096-.149.202-.355.321-.53.036-.031.072-.066.107-.106.41-.46.808-.918 1.252-1.347.195-.188.396-.372.599-.552.143-.127.35-.294.466-.39a22.424 22.424 0 0 1 3.013-1.849c.221-.112 1.045-.466 1.163-.53a31.665 31.665 0 0 1 1.93-.683 34.446 34.446 0 0 1 3.52-.881c.551-.108 1.13-.24 1.695-.3l.075-.007c.325-.034.648-.071.974-.1 2.163-.187 4.294-.104 6.453.078.17.028.341.054.512.084.546.095 1.09.206 1.63.334 1.067.251 2.12.566 3.146.952l.295.112c-.204-.098-.35-.178.012.005.15.058.3.117.299.12-.005.016-.136-.041-.267-.104l.109.055c.43.219.864.423 1.285.657.463.258.916.535 1.356.83.162.108.318.223.478.333l.024.022c.713.648 1.338 1.357 2.014 2.036.107.165.223.325.329.492.352.55.64 1.125.94 1.706l.009.019c.071.204.15.447.17.506.222.671.37 1.348.526 2.035.018.082.03.135.044.191.028.254.039.514.052.76.044.77.04 1.54-.006 2.31-.017.281-.049.562-.067.843l-.01.175-.04.185c-.113.563-.21 1.128-.341 1.687a35.087 35.087 0 0 1-1.35 4.373c-.13.34-.264.678-.399 1.016l-.008.02a62.953 62.953 0 0 1-.915 1.976 81.889 81.889 0 0 1-1.932 3.702 102.57 102.57 0 0 1-7.86 12.154l-.504.66c-.145.185-.328.42-.33.42a105.457 105.457 0 0 1-2.189 2.67 101.346 101.346 0 0 1-12.478 12.358c-.516.428-1.036.851-1.56 1.27l-.686.539c-.098.074-.35.267-.528.4a98.797 98.797 0 0 1-7.285 4.972c-1.816 1.126-2.987 3.517-2.297 5.646.73 2.26 2.527 3.428 4.821 3.671l52.344 5.548c2.61.277 5.112-2.497 5-5-.132-2.945-2.205-4.704-5-5Zm-52.348-51.12c-.103-.055-.19-.269-.264-.534.075.159.27.536.264.533Zm35.057-9.263c.012 0 .062.133.117.29-.067-.139-.135-.288-.117-.29Zm.138.332c.156.306.09.184 0 0Zm-1.438 14.042c.075-.188.367-.827 0 0ZM467.398 332.998l.044.021-.032-.016-.012-.005ZM444.976 350.958a.535.535 0 0 0-.4.11c.14-.04.267-.071.361-.086l.039-.024Z"/><path d="m491.158 399.256-38.774-4.11a103.424 103.424 0 0 0 15.704-15.892c3.902-4.923 7.445-10.1 10.454-15.618 3.22-5.904 5.974-12.273 6.252-19.087.253-6.227-2.206-12.65-7.029-16.704-4.43-3.724-9.746-5.566-15.43-6.267-11.493-1.419-25.889 2.634-31.572 13.54-3.502 6.72-3.593 14.975 1.498 20.91 4.352 5.074 12.543 7.047 18.304 3.231 2.177-1.442 3.314-4.483 1.794-6.84-1.4-2.172-4.509-3.339-6.841-1.794-.177.117-.362.222-.542.333.032.005.065.005.097.018a.34.34 0 0 0-.136.006l-.085.052c-.42.28-.428.154-.277.035-.228.065-.473.146-.638.203-.163 0-.327.009-.49.005-.11-.003-.475-.063-.573-.071a16.369 16.369 0 0 1-.209-.05c-.208-.054-.794-.353-1.066-.376l-.06-.03c-.186-.099-.37-.203-.55-.313-.178-.108-.346-.23-.523-.338l-.006-.006c-.36-.355-.716-.707-1.065-1.072-.103-.212-.281-.421-.397-.621-.108-.187-.2-.38-.305-.569a6.001 6.001 0 0 0-.157-.27c-.117-.438-.197-.993-.24-1.199-.027-.127-.084-.331-.113-.512.013-.196.024-.415.021-.527-.012-.536.018-1.065.055-1.599l.002-.008c.076-.299.12-.608.192-.908.132-.544.293-1.08.48-1.608.023-.066.05-.158.073-.249.112-.27.265-.542.392-.786.26-.497.543-.982.849-1.452.096-.149.202-.355.322-.53.035-.031.072-.066.107-.106.41-.46.808-.918 1.252-1.347.195-.188.395-.372.598-.552.144-.127.351-.295.467-.39a22.422 22.422 0 0 1 3.013-1.849c.221-.112 1.045-.467 1.163-.53a31.618 31.618 0 0 1 1.929-.683 34.45 34.45 0 0 1 3.522-.881c.55-.108 1.128-.24 1.693-.3l.076-.007c.324-.034.648-.071.973-.1 2.164-.187 4.295-.104 6.454.078.17.028.341.054.512.084.546.095 1.09.206 1.629.334 1.067.251 2.12.566 3.147.952l.294.112c-.203-.098-.35-.178.012.005.151.058.3.116.3.12-.005.016-.137-.042-.268-.104l.11.055c.43.219.864.423 1.285.657.463.258.916.535 1.356.83.161.108.318.223.478.333l.023.022c.714.648 1.339 1.357 2.014 2.036.107.165.223.325.33.492.351.55.64 1.125.94 1.706l.009.02c.071.203.15.446.17.505.221.671.369 1.348.525 2.035l.045.192c.028.253.038.513.052.76.043.769.04 1.54-.006 2.309-.017.281-.05.562-.067.843l-.01.175-.04.185c-.114.563-.21 1.128-.341 1.687a35.087 35.087 0 0 1-1.351 4.373c-.129.34-.264.679-.398 1.018l-.009.018a62.795 62.795 0 0 1-.914 1.976 81.959 81.959 0 0 1-1.932 3.702 102.543 102.543 0 0 1-7.86 12.154l-.502.658-.332.423a103.396 103.396 0 0 1-5.01 5.856 101.346 101.346 0 0 1-9.657 9.17c-.516.429-1.036.852-1.56 1.27-.229.182-.458.361-.688.54a98.81 98.81 0 0 1-7.811 5.371c-1.817 1.127-2.987 3.518-2.298 5.647.731 2.26 2.528 3.428 4.822 3.671l52.343 5.548c2.61.277 5.112-2.497 5-5-.132-2.945-2.204-4.704-5-5Zm-52.348-51.12c-.102-.055-.19-.269-.263-.534.075.16.27.536.263.533Zm35.057-9.263c.012 0 .063.133.118.291-.068-.14-.136-.289-.118-.29Zm.138.333c.157.304.09.183 0 0Zm-1.438 14.043c.074-.186.37-.833 0 0ZM391.291 325.172c-1.912-.14-3.77.074-5.663.338-.753.105-1.422.474-1.98.994-5.344 1.135-10.305 3.988-14.213 7.81-5.506 5.383-8.814 12.756-9.974 20.31-1.215 7.907-.806 16.028 1.038 23.815 1.721 7.269 5.02 14.316 10.24 19.736 5.126 5.323 12.232 8.57 19.593 9.044 7.332.472 14.606-2.633 19.336-8.253 4.722-5.611 7.3-12.583 9.054-19.623 2.042-8.19 2.865-16.604 1.59-24.975-2.232-14.646-13.656-28.07-29.02-29.196Zm-19.017 57.357c-.099-.224-.276-.71 0 0Zm38.514-15.556a59.812 59.812 0 0 1-.254 2.372c-.034.236-.095.672-.107.747a78.839 78.839 0 0 1-2.68 11.344c-.416 1.315-.828 2.702-1.406 3.966l-.087.177c-.16.344-.312.691-.475 1.033-.38.793-.785 1.574-1.223 2.336a29.287 29.287 0 0 1-1.185 1.897c-.139.204-.287.403-.425.607l-.071.11-.044.05c-.478.557-.951 1.114-1.47 1.635a20.625 20.625 0 0 1-1.345 1.24c-.426.345-.376.312.149-.099.08.305-2.48 1.627-3.27 1.958-.13.03-.26.065-.335.09-.337.117-.677.222-1.02.318-.455.127-1.644.596-2.084.451l.625-.081a19.555 19.555 0 0 1-1.778.131c-.717.021-1.435.004-2.15-.048-.258-.018-.514-.048-.77-.072l-.052-.011c-.834-.173-1.663-.331-2.483-.564-.707-.2-1.39-.455-2.084-.692l-.094-.032c-.245-.112-.492-.221-.735-.339-1.17-.567-2.74-1.26-3.765-2.176a3.245 3.245 0 0 0-.308-.309 24.118 24.118 0 0 1-2.326-2.197c-.47-.5-.909-1.027-1.345-1.556-.13-.165-.33-.42-.384-.495-.23-.321-.454-.647-.673-.977a35.046 35.046 0 0 1-2.341-4.135c-.173-.359-.334-.722-.502-1.083l-.013-.03c-.321-.83-.644-1.658-.927-2.503-1.002-2.988-1.882-6.228-2.17-9.376a18.447 18.447 0 0 0-.028-.288 65.506 65.506 0 0 1-.3-3.385 57.407 57.407 0 0 1-.09-5.212c.029-1.012.088-2.023.18-3.032.039-.431.089-.86.135-1.291a38.517 38.517 0 0 1 1.444-6.234c.132-.408.271-.814.418-1.216.055-.15.483-1.172.456-1.142.305-.666.623-1.325.972-1.97.428-.79.894-1.56 1.398-2.304.194-.287.402-.691.656-.927-.175.162-.266.248-.321.3a8.12 8.12 0 0 0 .476-.482c1.138-1.371 2.412-2.581 3.767-3.733l.066-.057.122-.08c.314-.21.616-.435.932-.641.732-.48 1.49-.922 2.27-1.32.311-.16.629-.305.944-.456a21.363 21.363 0 0 1 3.814-1.09l.297-.048.212-.022c.875-.036 1.735-.085 2.613-.049.893.037 1.77-.233 2.536-.703.157.028.314.055.47.087a22.029 22.029 0 0 1 3.274.941c.055.02.136.043.22.065.576.15 1.201.577 1.713.854a26.31 26.31 0 0 1 3.14 1.995c1.031.865 2.024 1.756 2.946 2.739.51.543.987 1.113 1.466 1.683l.047.056.077.114c.245.358.503.707.743 1.069a29.007 29.007 0 0 1 2.09 3.708c.023.051.073.15.127.254.174.363.3.77.435 1.144.3.83.569 1.673.806 2.523a37.317 37.317 0 0 1 .86 3.864c.014.083.073.504.107.734.193 1.65.299 3.309.311 4.97a53.533 53.533 0 0 1-.194 4.895ZM552.674 351.756c1.62-6.48-.355-13.095-4.957-17.868-4.322-4.483-10.333-6.877-16.44-7.507-8.181-.846-16.317 1.875-23.932 4.52-2.465.855-4.361 3.463-3.492 6.15.79 2.44 3.505 4.41 6.15 3.492 2.927-1.016 5.86-2.026 8.851-2.835a54.694 54.694 0 0 1 4.39-1.01c.31-.057.62-.106.93-.161l.253-.046.048-.005c.858-.087 1.71-.176 2.572-.214 1.418-.063 2.817.003 4.23.109.163.012.248.016.305.018.181.047.358.1.464.12.583.119 1.161.26 1.732.425.538.155 1.06.347 1.59.526l-.09-.064c.052.04.133.071.208.105a.98.98 0 0 1 .185.085c.091.036.185.07.258.105a20.855 20.855 0 0 1 3.358 1.985l.129.096c.102.096.196.192.225.218.39.345.766.706 1.124 1.084.197.21.381.43.576.64.627.68-.078-.166-.14-.207.397.263.798 1.17 1.025 1.572.14.248.261.505.397.754.17.316.204.362.178.295.122.402.211.896.259 1.084.057.226.1.454.152.68l.007.03c.025.652.07 1.29.03 1.945-.009.126-.06.376-.073.56-.008.04-.014.08-.023.12-.113.543-.257 1.08-.43 1.608l-.07.218c.031-.137-.241.595-.27.655a17.253 17.253 0 0 1-.918 1.634c-.168.265-.362.515-.527.78l-.013.024-.01.012c-.336.377-.66.761-1.014 1.121-.11.113-.624.715-1.012 1.05.028-.04-.026-.027-.264.135-.312.21-.617.43-.936.63-.695.435-1.419.794-2.15 1.16l-.023.01.079-.028-.09.032c-.15.07-.425.16-.38.137-.23.086-.46.173-.693.25a24.19 24.19 0 0 1-3.817.905c-.373.057-.273.043.3-.04-.542.218-1.392.142-1.991.155a28.227 28.227 0 0 0-7.568-.625c-2.501.138-4.57 1.798-4.91 4.336-.308 2.29 1.131 5.013 3.58 5.486 2.514.485 5.036.75 7.54.757.433.114.862.237 1.288.374.468.15 1.196.303 1.627.577.064.04.126.075.177.1a25.01 25.01 0 0 1 3.411 1.944c.255.174 1.598.913.422.275 1.04.564 2.057 1.802 2.835 2.675.194.217.578.54.688.81l-.346-.455a21.172 21.172 0 0 1 1.55 2.37c.175.311.34.626.497.945l.155.321c.229.509.202.431-.082-.232.298.356.422 1.13.56 1.584.196.642.356 1.295.484 1.954l.06.33.04.238c.015.194.027.376.03.433.027.348.151 4.02-.087 4.031-.027.001.224-1.302.038-.329-.063.331-.117.663-.187.993a21.56 21.56 0 0 1-.893 3.061c-.09.238-.098.365-.078.412-.214.46-.609 1.016-.753 1.273-.272.484-.563.956-.875 1.415-.15.222-.361.654-.58.81.445-.573.499-.651.16-.235a17.798 17.798 0 0 1-1.73 1.783c-.044.04-.132.132-.226.228a16.173 16.173 0 0 1-2.148 1.353c-.178.093-.363.176-.541.27-.097.036-.193.074-.29.109-.595.21-1.202.386-1.816.528-.211.049-.424.088-.636.128.034.006.064.009.1.017-.04-.01-.09-.005-.133-.01l-.259.052c-.321.068-.362-.014-.206-.06-.44.035-.927.136-1.295.141a18.797 18.797 0 0 1-1.894-.071c-.28-.143-.895-.148-1.183-.212a19.175 19.175 0 0 1-1.832-.507c-.269-.089-.532-.19-.798-.287-.115-.053-.23-.105-.344-.16a17.876 17.876 0 0 1-1.646-.914c-.266-.167-.518-.35-.781-.52l-.053-.038c-.055-.046-.111-.09-.166-.137a15.757 15.757 0 0 1-1.447-1.408c-.067-.075-.311-.425-.44-.54-.068-.098-.138-.196-.203-.296a15.323 15.323 0 0 1-1.056-1.933c-1.103-2.38-4.721-3.16-6.841-1.794-2.454 1.582-2.973 4.295-1.794 6.841 2.73 5.894 8.775 10.104 15.053 11.403 6.982 1.444 13.945-.091 19.443-4.678 5.301-4.422 8.141-11.408 8.452-18.198.326-7.118-2.618-14.095-7.703-19.04-.422-.411-.861-.804-1.308-1.188 5.16-2.886 9.256-8.012 10.688-13.74Zm-21.675-15.422c.1-.03.27-.004.445.035a3.792 3.792 0 0 0-.445-.035Zm8.11 3.214c.062.015.181.116.292.22l-.292-.22Zm3.423 4.038c.101.077.191.296.269.552a7.57 7.57 0 0 0-.27-.552Zm-7.186 53.37.39-.298c-.145.148-.31.3-.39.298Zm5.517-14.758c.016 0 .035.182.054.39l-.054-.39Zm-2.22-26.355-.008.005.008-.005Z"/><path d="m530.287 399.04.033-.008c-.231-.04-.402-.029-.498 0 .167-.014.321-.01.465.007ZM535.516 357.594a7.634 7.634 0 0 0-.01.004l.01-.004ZM535.476 337.507l-.108-.037c.452.322.495.24.303.126-.068-.026-.12-.056-.185-.085l-.01-.004Z"/></g><path fill="#e6e6e6" d="M106.837 300.215s-6.117-1.61-17.707 13.2S82.69 433.82 82.69 433.82l84.026-18.994-16.018-94.553-10.38-21.345-33.482 1.287Z"/><path fill="#fdadb0" d="m194.393 402.051-31.82-2.785-1.445 12.624 31.933 3.574a18.977 18.977 0 0 0 8.498 2.85c7.549.75 14.052-2.535 14.529-7.337s-5.254-9.303-12.8-10.05a18.979 18.979 0 0 0-8.895 1.124Z"/><path fill="#e6e6e6" d="m84.548 327.966 16.816 76.236 86.923 14.165 3.22-21.892-59.237-14.165-19.317-66.964-28.405 12.62z"/></svg>